<svg xmlns="http://www.w3.org/2000/svg" xmlns:xlink="http://www.w3.org/1999/xlink" width="500" zoomAndPan="magnify" viewBox="0 0 375 374.999991" height="500" preserveAspectRatio="xMidYMid meet" version="1.0"><defs><g/><clipPath id="21e1f4d482"><path d="M 173.765625 64.316406 L 252 64.316406 L 252 203.066406 L 173.765625 203.066406 Z M 173.765625 64.316406 " clip-rule="nonzero"/></clipPath><clipPath id="90b473c59d"><path d="M 139.484375 47.359375 L 208.046875 47.359375 L 208.046875 115.921875 L 139.484375 115.921875 Z M 139.484375 47.359375 " clip-rule="nonzero"/></clipPath><clipPath id="a442f9374d"><path d="M 173.765625 47.359375 C 154.832031 47.359375 139.484375 62.707031 139.484375 81.640625 C 139.484375 100.574219 154.832031 115.921875 173.765625 115.921875 C 192.699219 115.921875 208.046875 100.574219 208.046875 81.640625 C 208.046875 62.707031 192.699219 47.359375 173.765625 47.359375 Z M 173.765625 47.359375 " clip-rule="nonzero"/></clipPath></defs><g clip-path="url(#21e1f4d482)"><path fill="#006838" d="M 249.648438 82.015625 C 226.96875 122.957031 185.082031 97.125 177.648438 145.988281 C 174.738281 165.160156 179.15625 187.875 184.34375 203.265625 C 180.839844 168.28125 183.398438 145.144531 192.898438 134.628906 C 205.585938 120.574219 219.539062 122.609375 233.382812 113.421875 C 222.097656 124.113281 202.257812 129.058594 195.773438 146.511719 C 222.621094 125.9375 260.375 143.8125 249.648438 82.015625 Z M 172.109375 64.316406 C 174.039062 69.921875 177.789062 75.179688 180.664062 80.160156 C 189.496094 95.300781 181.398438 96.808594 175.441406 104.976562 L 175.125 102.769531 L 172.109375 81.699219 L 169.097656 102.769531 L 168.78125 104.976562 C 162.824219 96.808594 154.726562 95.335938 163.558594 80.160156 C 166.433594 75.179688 170.183594 69.921875 172.109375 64.316406 Z M 200.257812 72.585938 C 197.910156 78.019531 197.175781 84.46875 195.980469 90.078125 C 193.214844 103.117188 188.515625 103.75 182.101562 104.203125 C 184.238281 101.960938 186.449219 99.824219 187.78125 97.019531 C 191.144531 90.078125 187.921875 83.59375 184.765625 78.125 C 189.882812 76.582031 195.527344 75.214844 200.257812 72.585938 Z M 143.964844 72.585938 C 146.3125 78.019531 147.046875 84.46875 148.242188 90.078125 C 151.007812 103.117188 155.707031 103.75 162.121094 104.203125 C 159.984375 101.960938 157.773438 99.824219 156.441406 97.019531 C 153.078125 90.078125 156.300781 83.59375 159.457031 78.125 C 154.339844 76.582031 148.695312 75.214844 143.964844 72.585938 Z M 117.675781 138.3125 C 129.453125 156.679688 148.171875 143.359375 153.148438 165.898438 C 155.074219 174.730469 153.707031 185.421875 151.78125 192.78125 C 152.339844 176.378906 150.449219 165.6875 145.714844 161.09375 C 139.371094 154.960938 132.957031 156.328125 126.226562 152.472656 C 131.800781 157.097656 141.195312 158.816406 144.734375 166.738281 C 131.589844 157.941406 114.554688 167.40625 117.675781 138.3125 Z M 94.574219 82.015625 C 83.847656 143.8125 121.601562 125.9375 148.449219 146.511719 C 141.929688 129.058594 122.089844 124.113281 110.839844 113.421875 C 124.683594 122.609375 138.636719 120.574219 151.324219 134.628906 C 160.824219 145.144531 163.382812 168.28125 159.878906 203.265625 C 165.066406 187.839844 169.515625 165.160156 166.574219 145.988281 C 159.140625 97.125 117.253906 122.957031 94.574219 82.015625 Z M 226.546875 138.3125 C 229.667969 167.40625 212.632812 157.941406 199.488281 166.703125 C 203.0625 158.78125 212.421875 157.0625 217.996094 152.4375 C 211.265625 156.292969 204.851562 154.925781 198.507812 161.058594 C 193.773438 165.652344 191.882812 176.34375 192.441406 192.75 C 190.480469 185.421875 189.113281 174.695312 191.074219 165.863281 C 196.050781 143.359375 214.769531 156.679688 226.546875 138.3125 Z M 226.546875 138.3125 " fill-opacity="1" fill-rule="evenodd"/></g><g clip-path="url(#90b473c59d)"><g clip-path="url(#a442f9374d)"><path fill="#ffffff" d="M 139.484375 47.359375 L 208.046875 47.359375 L 208.046875 115.921875 L 139.484375 115.921875 Z M 139.484375 47.359375 " fill-opacity="1" fill-rule="nonzero"/></g></g><g fill="#006838" fill-opacity="1"><g transform="translate(127.341954, 247.04809)"><g><path d="M 4.75 -7.8125 L 4.75 -39.625 L 12.546875 -39.625 L 12.546875 -7.8125 C 12.546875 -6.007812 12.796875 -4.554688 13.296875 -3.453125 C 13.796875 -2.347656 14.945312 -1.796875 16.75 -1.796875 L 17.359375 -1.796875 L 17.359375 0 L 10.140625 0 C 8.066406 0 6.648438 -0.539062 5.890625 -1.625 C 5.128906 -2.707031 4.75 -4.769531 4.75 -7.8125 Z M 4.75 -7.8125 "/></g></g></g><g fill="#006838" fill-opacity="1"><g transform="translate(145.591964, 247.04809)"><g><path d="M 0.90625 -39.625 L 26.0625 -39.625 C 27.457031 -39.625 28.515625 -39.394531 29.234375 -38.9375 C 29.960938 -38.476562 30.46875 -37.878906 30.75 -37.140625 C 31.03125 -36.398438 31.171875 -35.628906 31.171875 -34.828125 L 31.171875 -29.71875 L 29.359375 -29.71875 C 29.359375 -32.320312 28.707031 -34.171875 27.40625 -35.265625 C 26.101562 -36.367188 24.253906 -36.921875 21.859375 -36.921875 L 13.515625 -36.921875 L 13.515625 -21.609375 L 26.71875 -21.609375 L 26.71875 -18.921875 L 13.515625 -18.921875 L 13.515625 0 L 5.703125 0 L 5.703125 -31.828125 C 5.703125 -33.628906 5.453125 -35.078125 4.953125 -36.171875 C 4.453125 -37.273438 3.300781 -37.828125 1.5 -37.828125 L 0.90625 -37.828125 Z M 0.90625 -39.625 "/></g></g></g><g fill="#006838" fill-opacity="1"><g transform="translate(177.949722, 247.04809)"><g><path d="M 0.90625 -39.625 L 27.375 -39.625 C 28.78125 -39.625 29.84375 -39.394531 30.5625 -38.9375 C 31.28125 -38.476562 31.78125 -37.878906 32.0625 -37.140625 C 32.34375 -36.398438 32.484375 -35.628906 32.484375 -34.828125 L 32.484375 -29.71875 L 30.6875 -29.71875 C 30.6875 -32.28125 30.035156 -34.117188 28.734375 -35.234375 C 27.429688 -36.359375 25.578125 -36.921875 23.171875 -36.921875 L 13.515625 -36.921875 L 13.515625 -21.921875 L 29.125 -21.921875 L 29.125 -19.21875 L 13.515625 -19.21875 L 13.515625 -2.703125 L 23.78125 -2.703125 C 25.976562 -2.703125 27.847656 -3.191406 29.390625 -4.171875 C 30.929688 -5.148438 32.222656 -6.941406 33.265625 -9.546875 L 34.890625 -8.953125 L 33.140625 -4.203125 C 32.703125 -2.921875 32.132812 -1.898438 31.4375 -1.140625 C 30.738281 -0.378906 29.566406 0 27.921875 0 L 5.703125 0 L 5.703125 -31.828125 C 5.703125 -33.628906 5.453125 -35.078125 4.953125 -36.171875 C 4.453125 -37.273438 3.300781 -37.828125 1.5 -37.828125 L 0.90625 -37.828125 Z M 0.90625 -39.625 "/></g></g></g><g fill="#006838" fill-opacity="1"><g transform="translate(213.96949, 247.04809)"><g><path d="M 16.390625 1.015625 C 14.234375 1.015625 12.113281 0.734375 10.03125 0.171875 C 7.945312 -0.378906 6.222656 -1.195312 4.859375 -2.28125 C 3.503906 -3.363281 2.828125 -4.664062 2.828125 -6.1875 L 2.828125 -13.203125 L 4.5 -13.203125 C 5.144531 -9.046875 6.4375 -6.085938 8.375 -4.328125 C 10.3125 -2.566406 12.960938 -1.6875 16.328125 -1.6875 C 18.609375 -1.6875 20.441406 -2.175781 21.828125 -3.15625 C 23.210938 -4.132812 23.90625 -5.582031 23.90625 -7.5 C 23.90625 -9.226562 23.351562 -10.660156 22.25 -11.796875 C 21.144531 -12.941406 19.632812 -14.09375 17.71875 -15.25 L 10.328125 -19.703125 C 7.648438 -21.335938 5.738281 -22.984375 4.59375 -24.640625 C 3.445312 -26.304688 2.875 -28.238281 2.875 -30.4375 C 2.875 -33.601562 4.082031 -36.109375 6.5 -37.953125 C 8.925781 -39.796875 12.203125 -40.71875 16.328125 -40.71875 C 18.535156 -40.71875 20.664062 -40.4375 22.71875 -39.875 C 24.78125 -39.3125 26.492188 -38.488281 27.859375 -37.40625 C 29.222656 -36.320312 29.90625 -35.019531 29.90625 -33.5 L 29.90625 -26.484375 L 28.21875 -26.484375 C 27.539062 -30.640625 26.257812 -33.597656 24.375 -35.359375 C 22.5 -37.128906 20.039062 -38.015625 17 -38.015625 C 14.832031 -38.015625 13.117188 -37.492188 11.859375 -36.453125 C 10.597656 -35.410156 9.96875 -33.988281 9.96875 -32.1875 C 9.96875 -30.5 10.535156 -29.132812 11.671875 -28.09375 C 12.816406 -27.0625 14.332031 -25.984375 16.21875 -24.859375 L 23.59375 -20.46875 C 26.320312 -18.875 28.316406 -17.304688 29.578125 -15.765625 C 30.835938 -14.222656 31.46875 -12.347656 31.46875 -10.140625 C 31.46875 -6.703125 30.164062 -3.984375 27.5625 -1.984375 C 24.957031 0.015625 21.234375 1.015625 16.390625 1.015625 Z M 16.390625 1.015625 "/></g></g></g><g fill="#006838" fill-opacity="1"><g transform="translate(107.869868, 268.959919)"><g><path d="M 9.15625 -9.59375 L 9.15625 0 L 6.8125 0 L 6.8125 -3.953125 L 3.1875 -3.953125 L 3.1875 0 L 0.84375 0 L 0.84375 -9.59375 L 3.1875 -9.59375 L 3.1875 -5.828125 L 6.8125 -5.828125 L 6.8125 -9.59375 Z M 9.15625 -9.59375 "/></g></g></g><g fill="#006838" fill-opacity="1"><g transform="translate(117.851761, 268.959919)"><g><path d="M 9.0625 -9.59375 L 5.75 -3.171875 L 5.75 0 L 3.40625 0 L 3.40625 -3.171875 L 0.09375 -9.59375 L 2.75 -9.59375 L 4.609375 -5.578125 L 6.453125 -9.59375 Z M 9.0625 -9.59375 "/></g></g></g><g fill="#006838" fill-opacity="1"><g transform="translate(127.014347, 268.959919)"><g><path d="M 4.4375 -9.59375 C 5.445312 -9.59375 6.328125 -9.390625 7.078125 -8.984375 C 7.835938 -8.585938 8.425781 -8.023438 8.84375 -7.296875 C 9.257812 -6.578125 9.46875 -5.742188 9.46875 -4.796875 C 9.46875 -3.859375 9.257812 -3.023438 8.84375 -2.296875 C 8.425781 -1.566406 7.835938 -1 7.078125 -0.59375 C 6.316406 -0.195312 5.4375 0 4.4375 0 L 0.84375 0 L 0.84375 -9.59375 Z M 4.28125 -2.015625 C 5.164062 -2.015625 5.851562 -2.253906 6.34375 -2.734375 C 6.84375 -3.222656 7.09375 -3.910156 7.09375 -4.796875 C 7.09375 -5.679688 6.84375 -6.367188 6.34375 -6.859375 C 5.851562 -7.347656 5.164062 -7.59375 4.28125 -7.59375 L 3.1875 -7.59375 L 3.1875 -2.015625 Z M 4.28125 -2.015625 "/></g></g></g><g fill="#006838" fill-opacity="1"><g transform="translate(136.941617, 268.959919)"><g><path d="M 5.734375 0 L 3.734375 -3.625 L 3.1875 -3.625 L 3.1875 0 L 0.84375 0 L 0.84375 -9.59375 L 4.765625 -9.59375 C 5.523438 -9.59375 6.171875 -9.457031 6.703125 -9.1875 C 7.234375 -8.925781 7.628906 -8.566406 7.890625 -8.109375 C 8.160156 -7.648438 8.296875 -7.132812 8.296875 -6.5625 C 8.296875 -5.925781 8.113281 -5.359375 7.75 -4.859375 C 7.382812 -4.359375 6.851562 -4.003906 6.15625 -3.796875 L 8.375 0 Z M 3.1875 -5.265625 L 4.625 -5.265625 C 5.050781 -5.265625 5.367188 -5.367188 5.578125 -5.578125 C 5.796875 -5.796875 5.90625 -6.09375 5.90625 -6.46875 C 5.90625 -6.832031 5.796875 -7.117188 5.578125 -7.328125 C 5.367188 -7.535156 5.050781 -7.640625 4.625 -7.640625 L 3.1875 -7.640625 Z M 3.1875 -5.265625 "/></g></g></g><g fill="#006838" fill-opacity="1"><g transform="translate(145.844762, 268.959919)"><g><path d="M 5.375 0.09375 C 4.476562 0.09375 3.65625 -0.113281 2.90625 -0.53125 C 2.15625 -0.945312 1.554688 -1.53125 1.109375 -2.28125 C 0.671875 -3.03125 0.453125 -3.878906 0.453125 -4.828125 C 0.453125 -5.765625 0.671875 -6.601562 1.109375 -7.34375 C 1.554688 -8.09375 2.15625 -8.675781 2.90625 -9.09375 C 3.65625 -9.507812 4.476562 -9.71875 5.375 -9.71875 C 6.28125 -9.71875 7.109375 -9.507812 7.859375 -9.09375 C 8.609375 -8.675781 9.195312 -8.09375 9.625 -7.34375 C 10.0625 -6.601562 10.28125 -5.765625 10.28125 -4.828125 C 10.28125 -3.878906 10.0625 -3.03125 9.625 -2.28125 C 9.1875 -1.53125 8.59375 -0.945312 7.84375 -0.53125 C 7.101562 -0.113281 6.28125 0.09375 5.375 0.09375 Z M 5.375 -2.03125 C 6.144531 -2.03125 6.757812 -2.285156 7.21875 -2.796875 C 7.675781 -3.304688 7.90625 -3.984375 7.90625 -4.828125 C 7.90625 -5.671875 7.675781 -6.34375 7.21875 -6.84375 C 6.757812 -7.351562 6.144531 -7.609375 5.375 -7.609375 C 4.601562 -7.609375 3.988281 -7.359375 3.53125 -6.859375 C 3.070312 -6.359375 2.84375 -5.679688 2.84375 -4.828125 C 2.84375 -3.972656 3.070312 -3.289062 3.53125 -2.78125 C 3.988281 -2.28125 4.601562 -2.03125 5.375 -2.03125 Z M 5.375 -2.03125 "/></g></g></g><g fill="#006838" fill-opacity="1"><g transform="translate(156.577682, 268.959919)"><g><path d="M 8.15625 -6.5 C 8.15625 -5.945312 8.023438 -5.4375 7.765625 -4.96875 C 7.515625 -4.507812 7.125 -4.140625 6.59375 -3.859375 C 6.0625 -3.578125 5.40625 -3.4375 4.625 -3.4375 L 3.1875 -3.4375 L 3.1875 0 L 0.84375 0 L 0.84375 -9.59375 L 4.625 -9.59375 C 5.394531 -9.59375 6.039062 -9.457031 6.5625 -9.1875 C 7.09375 -8.925781 7.488281 -8.5625 7.75 -8.09375 C 8.019531 -7.632812 8.15625 -7.101562 8.15625 -6.5 Z M 4.453125 -5.296875 C 4.898438 -5.296875 5.234375 -5.398438 5.453125 -5.609375 C 5.671875 -5.816406 5.78125 -6.113281 5.78125 -6.5 C 5.78125 -6.882812 5.671875 -7.179688 5.453125 -7.390625 C 5.234375 -7.597656 4.898438 -7.703125 4.453125 -7.703125 L 3.1875 -7.703125 L 3.1875 -5.296875 Z M 4.453125 -5.296875 "/></g></g></g><g fill="#006838" fill-opacity="1"><g transform="translate(165.098485, 268.959919)"><g><path d="M 5.375 0.09375 C 4.476562 0.09375 3.65625 -0.113281 2.90625 -0.53125 C 2.15625 -0.945312 1.554688 -1.53125 1.109375 -2.28125 C 0.671875 -3.03125 0.453125 -3.878906 0.453125 -4.828125 C 0.453125 -5.765625 0.671875 -6.601562 1.109375 -7.34375 C 1.554688 -8.09375 2.15625 -8.675781 2.90625 -9.09375 C 3.65625 -9.507812 4.476562 -9.71875 5.375 -9.71875 C 6.28125 -9.71875 7.109375 -9.507812 7.859375 -9.09375 C 8.609375 -8.675781 9.195312 -8.09375 9.625 -7.34375 C 10.0625 -6.601562 10.28125 -5.765625 10.28125 -4.828125 C 10.28125 -3.878906 10.0625 -3.03125 9.625 -2.28125 C 9.1875 -1.53125 8.59375 -0.945312 7.84375 -0.53125 C 7.101562 -0.113281 6.28125 0.09375 5.375 0.09375 Z M 5.375 -2.03125 C 6.144531 -2.03125 6.757812 -2.285156 7.21875 -2.796875 C 7.675781 -3.304688 7.90625 -3.984375 7.90625 -4.828125 C 7.90625 -5.671875 7.675781 -6.34375 7.21875 -6.84375 C 6.757812 -7.351562 6.144531 -7.609375 5.375 -7.609375 C 4.601562 -7.609375 3.988281 -7.359375 3.53125 -6.859375 C 3.070312 -6.359375 2.84375 -5.679688 2.84375 -4.828125 C 2.84375 -3.972656 3.070312 -3.289062 3.53125 -2.78125 C 3.988281 -2.28125 4.601562 -2.03125 5.375 -2.03125 Z M 5.375 -2.03125 "/></g></g></g><g fill="#006838" fill-opacity="1"><g transform="translate(175.831405, 268.959919)"><g><path d="M 9.421875 0 L 7.09375 0 L 3.1875 -5.90625 L 3.1875 0 L 0.84375 0 L 0.84375 -9.59375 L 3.1875 -9.59375 L 7.09375 -3.640625 L 7.09375 -9.59375 L 9.421875 -9.59375 Z M 9.421875 0 "/></g></g></g><g fill="#006838" fill-opacity="1"><g transform="translate(186.100063, 268.959919)"><g><path d="M 3.1875 -9.59375 L 3.1875 0 L 0.84375 0 L 0.84375 -9.59375 Z M 3.1875 -9.59375 "/></g></g></g><g fill="#006838" fill-opacity="1"><g transform="translate(190.128327, 268.959919)"><g><path d="M 0.453125 -4.8125 C 0.453125 -5.757812 0.65625 -6.601562 1.0625 -7.34375 C 1.476562 -8.082031 2.050781 -8.660156 2.78125 -9.078125 C 3.507812 -9.492188 4.335938 -9.703125 5.265625 -9.703125 C 6.410156 -9.703125 7.382812 -9.398438 8.1875 -8.796875 C 9 -8.191406 9.539062 -7.375 9.8125 -6.34375 L 7.25 -6.34375 C 7.0625 -6.738281 6.789062 -7.039062 6.4375 -7.25 C 6.082031 -7.457031 5.6875 -7.5625 5.25 -7.5625 C 4.53125 -7.5625 3.945312 -7.3125 3.5 -6.8125 C 3.050781 -6.3125 2.828125 -5.644531 2.828125 -4.8125 C 2.828125 -3.96875 3.050781 -3.296875 3.5 -2.796875 C 3.945312 -2.296875 4.53125 -2.046875 5.25 -2.046875 C 5.6875 -2.046875 6.082031 -2.148438 6.4375 -2.359375 C 6.789062 -2.566406 7.0625 -2.875 7.25 -3.28125 L 9.8125 -3.28125 C 9.539062 -2.238281 9 -1.421875 8.1875 -0.828125 C 7.382812 -0.234375 6.410156 0.0625 5.265625 0.0625 C 4.335938 0.0625 3.507812 -0.140625 2.78125 -0.546875 C 2.050781 -0.960938 1.476562 -1.539062 1.0625 -2.28125 C 0.65625 -3.019531 0.453125 -3.863281 0.453125 -4.8125 Z M 0.453125 -4.8125 "/></g></g></g><g fill="#006838" fill-opacity="1"><g transform="translate(200.533528, 268.959919)"><g/></g></g><g fill="#006838" fill-opacity="1"><g transform="translate(203.428409, 268.959919)"><g><path d="M 7.09375 -9.59375 L 7.09375 -7.71875 L 3.1875 -7.71875 L 3.1875 -5.6875 L 6.109375 -5.6875 L 6.109375 -3.875 L 3.1875 -3.875 L 3.1875 0 L 0.84375 0 L 0.84375 -9.59375 Z M 7.09375 -9.59375 "/></g></g></g><g fill="#006838" fill-opacity="1"><g transform="translate(210.897762, 268.959919)"><g><path d="M 6.8125 -1.6875 L 3.234375 -1.6875 L 2.65625 0 L 0.21875 0 L 3.6875 -9.59375 L 6.390625 -9.59375 L 9.859375 0 L 7.390625 0 Z M 6.21875 -3.5 L 5.03125 -7 L 3.84375 -3.5 Z M 6.21875 -3.5 "/></g></g></g><g fill="#006838" fill-opacity="1"><g transform="translate(220.961587, 268.959919)"><g><path d="M 5.734375 0 L 3.734375 -3.625 L 3.1875 -3.625 L 3.1875 0 L 0.84375 0 L 0.84375 -9.59375 L 4.765625 -9.59375 C 5.523438 -9.59375 6.171875 -9.457031 6.703125 -9.1875 C 7.234375 -8.925781 7.628906 -8.566406 7.890625 -8.109375 C 8.160156 -7.648438 8.296875 -7.132812 8.296875 -6.5625 C 8.296875 -5.925781 8.113281 -5.359375 7.75 -4.859375 C 7.382812 -4.359375 6.851562 -4.003906 6.15625 -3.796875 L 8.375 0 Z M 3.1875 -5.265625 L 4.625 -5.265625 C 5.050781 -5.265625 5.367188 -5.367188 5.578125 -5.578125 C 5.796875 -5.796875 5.90625 -6.09375 5.90625 -6.46875 C 5.90625 -6.832031 5.796875 -7.117188 5.578125 -7.328125 C 5.367188 -7.535156 5.050781 -7.640625 4.625 -7.640625 L 3.1875 -7.640625 Z M 3.1875 -5.265625 "/></g></g></g><g fill="#006838" fill-opacity="1"><g transform="translate(229.864731, 268.959919)"><g><path d="M 11.703125 -9.59375 L 11.703125 0 L 9.375 0 L 9.375 -5.75 L 7.21875 0 L 5.34375 0 L 3.1875 -5.765625 L 3.1875 0 L 0.84375 0 L 0.84375 -9.59375 L 3.609375 -9.59375 L 6.296875 -2.953125 L 8.953125 -9.59375 Z M 11.703125 -9.59375 "/></g></g></g><g fill="#006838" fill-opacity="1"><g transform="translate(242.40013, 268.959919)"><g><path d="M 3.1875 -9.59375 L 3.1875 0 L 0.84375 0 L 0.84375 -9.59375 Z M 3.1875 -9.59375 "/></g></g></g><g fill="#006838" fill-opacity="1"><g transform="translate(246.428393, 268.959919)"><g><path d="M 9.421875 0 L 7.09375 0 L 3.1875 -5.90625 L 3.1875 0 L 0.84375 0 L 0.84375 -9.59375 L 3.1875 -9.59375 L 7.09375 -3.640625 L 7.09375 -9.59375 L 9.421875 -9.59375 Z M 9.421875 0 "/></g></g></g><g fill="#006838" fill-opacity="1"><g transform="translate(256.697051, 268.959919)"><g><path d="M 7.203125 -6.5625 C 7.035156 -6.875 6.789062 -7.113281 6.46875 -7.28125 C 6.144531 -7.445312 5.765625 -7.53125 5.328125 -7.53125 C 4.566406 -7.53125 3.957031 -7.28125 3.5 -6.78125 C 3.050781 -6.289062 2.828125 -5.632812 2.828125 -4.8125 C 2.828125 -3.925781 3.066406 -3.234375 3.546875 -2.734375 C 4.023438 -2.242188 4.679688 -2 5.515625 -2 C 6.085938 -2 6.570312 -2.144531 6.96875 -2.4375 C 7.363281 -2.726562 7.65625 -3.144531 7.84375 -3.6875 L 4.875 -3.6875 L 4.875 -5.40625 L 9.953125 -5.40625 L 9.953125 -3.234375 C 9.785156 -2.648438 9.492188 -2.109375 9.078125 -1.609375 C 8.660156 -1.109375 8.132812 -0.703125 7.5 -0.390625 C 6.863281 -0.0859375 6.144531 0.0625 5.34375 0.0625 C 4.394531 0.0625 3.546875 -0.140625 2.796875 -0.546875 C 2.054688 -0.960938 1.476562 -1.539062 1.0625 -2.28125 C 0.65625 -3.019531 0.453125 -3.863281 0.453125 -4.8125 C 0.453125 -5.757812 0.65625 -6.601562 1.0625 -7.34375 C 1.476562 -8.082031 2.054688 -8.660156 2.796875 -9.078125 C 3.535156 -9.492188 4.378906 -9.703125 5.328125 -9.703125 C 6.472656 -9.703125 7.4375 -9.421875 8.21875 -8.859375 C 9.007812 -8.304688 9.535156 -7.539062 9.796875 -6.5625 Z M 7.203125 -6.5625 "/></g></g></g></svg>